# Blender v2.83.4 OBJ File: 'CubeRTY.blend'
# www.blender.org
mtllib CubeRTYStage2.mtl
o Stage2_Plane.002
v -9.939216 -1.598022 -0.000792
v 10.060782 -1.598022 -0.000791
v -9.936819 -1.598022 -8.960981
v 10.063180 -1.598022 -8.960981
v 9.026894 -1.598022 -1.148386
v 9.026894 -1.598022 -8.073186
v -8.986174 -1.598022 -1.148386
v -8.986174 -1.598022 -8.073186
v 10.063181 1.597562 -8.960982
v -9.936820 1.597562 -8.960982
v -9.939216 1.597562 -0.000791
v 10.060783 1.597562 -0.000791
v 9.026895 1.597562 -8.073187
v -8.986174 1.597562 -1.148386
v 9.026895 1.597562 -1.148386
v -8.986174 1.597562 -8.073187
v 0.020360 -1.598022 -1.148386
v 0.604353 -1.598022 -8.073186
v -4.929116 -1.598022 -1.148386
v -4.482906 -1.598022 -8.073186
v 4.342026 -1.598022 -1.148386
v 4.523627 -1.598022 -8.073186
v 0.020360 1.597562 -1.148386
v -4.929116 1.597562 -1.148386
v 4.342026 1.597562 -1.148386
v 0.604353 1.597562 -8.073187
v -4.482907 1.597562 -8.073187
v 4.523627 1.597562 -8.073187
v 0.020360 -1.598022 -3.973777
v -4.482906 -1.598022 -5.088543
v 4.656337 -1.598022 -5.211579
v -4.482907 1.597562 -5.088543
v 0.020360 1.597562 -3.973777
v 4.656338 1.597562 -5.211579
v 5.052271 -1.598022 -1.148386
v 5.052272 1.597562 -1.148386
v -0.564880 -1.598022 -8.073186
v -0.564880 1.597562 -8.073187
v -4.081577 -1.598022 -1.148386
v -4.081577 1.597562 -1.148386
v 10.058384 -1.598022 8.959401
v -9.941613 -1.598022 8.959399
v -8.905328 -1.598022 1.146803
v -8.905328 -1.598022 8.071603
v 9.107739 -1.598022 1.146805
v 9.107738 -1.598022 8.071605
v -9.941612 1.597562 8.959399
v 10.058385 1.597562 8.959401
v -8.905329 1.597562 8.071604
v 9.107738 1.597562 1.146805
v -8.905327 1.597562 1.146803
v 9.107738 1.597562 8.071605
v 0.101207 -1.598022 1.146804
v -0.482786 -1.598022 8.071604
v 4.847128 -1.598022 1.146805
v 4.604473 -1.598022 8.071605
v -4.220458 -1.598022 1.146804
v -4.402061 -1.598022 8.071603
v 0.101207 1.597562 1.146804
v 4.847128 1.597562 1.146805
v -4.220459 1.597562 1.146804
v -0.482786 1.597562 8.071605
v 4.604473 1.597562 8.071605
v -4.402061 1.597562 8.071604
v 0.101206 -1.598022 3.972195
v 4.604473 -1.598022 5.086961
v -4.534770 -1.598022 5.209997
v 4.604474 1.597562 5.086961
v 0.101206 1.597562 3.972195
v -4.534770 1.597562 5.209997
v -4.930704 -1.598022 1.146804
v -4.930705 1.597562 1.146804
v 0.686447 -1.598022 8.071604
v 0.686447 1.597562 8.071605
v 4.203144 -1.598022 1.146805
v 4.203144 1.597562 1.146805
vn 0.0000 1.0000 0.0000
vn 0.0000 -1.0000 -0.0000
vn -1.0000 0.0000 0.0000
vn 0.0000 0.0000 1.0000
vn 1.0000 0.0000 0.0000
vn 0.0000 -0.0000 -1.0000
vn 1.0000 0.0000 0.0003
vn -1.0000 -0.0000 -0.0003
vn 0.9900 0.0000 0.1410
vn 0.9953 -0.0000 -0.0970
vn -0.9970 0.0000 -0.0771
vn -0.9936 -0.0000 -0.1125
vn -0.9900 0.0000 0.1413
vn 0.9949 0.0000 -0.1013
vn 0.9994 -0.0000 -0.0352
vn -0.9900 0.0000 -0.1410
vn -0.9953 0.0000 0.0970
vn 0.9970 0.0000 0.0771
vn 0.9981 0.0000 0.0615
vn 0.9900 -0.0000 -0.1413
vn -0.9949 0.0000 0.1013
vn -1.0000 -0.0000 -0.0007
g Stage2_Plane.002_Material.StageGlass
usemtl Material.StageGlass
s off
f 35//1 5//1 6//1 22//1 31//1
f 72//2 51//2 14//2 24//2
f 19//1 7//1 43//1 71//1
f 7//1 19//1 30//1 20//1 8//1
f 71//1 43//1 44//1 58//1 67//1
f 45//1 55//1 66//1 56//1 46//1
f 70//2 61//2 59//2 69//2 62//2 64//2
f 68//2 60//2 50//2 52//2 63//2
f 51//2 72//2 70//2 64//2 49//2
f 74//2 69//2 59//2 76//2 68//2 63//2
f 40//2 32//2 27//2 38//2 33//2 23//2
f 36//2 34//2 28//2 13//2 15//2
f 24//2 14//2 16//2 27//2 32//2
f 25//2 23//2 33//2 26//2 28//2 34//2
f 57//1 67//1 58//1 54//1 65//1 53//1
f 65//1 73//1 56//1 66//1 75//1 53//1
f 29//1 37//1 20//1 30//1 39//1 17//1
f 21//1 31//1 22//1 18//1 29//1 17//1
g Stage2_Plane.002_Material.StageBoard
usemtl Material.StageBoard
f 6//3 5//3 15//3 13//3
f 22//4 6//4 13//4 28//4
f 7//5 8//5 16//5 14//5
f 11//1 14//1 16//1 10//1
f 4//6 3//6 10//6 9//6
f 15//1 12//1 9//1 13//1
f 2//7 4//7 9//7 12//7
f 16//1 27//1 38//1 26//1 28//1 13//1 9//1 10//1
f 3//8 1//8 11//8 10//8
f 7//2 1//2 3//2 8//2
f 4//2 6//2 22//2 18//2 37//2 20//2 8//2 3//2
f 2//2 5//2 6//2 4//2
f 29//2 37//2 18//2
f 40//6 39//6 19//6 24//6
f 21//6 17//6 23//6 25//6
f 35//6 21//6 25//6 36//6
f 8//4 20//4 27//4 16//4
f 37//4 18//4 26//4 38//4
f 18//4 22//4 28//4 26//4
f 5//6 35//6 36//6 15//6
f 33//9 29//9 18//9 26//9
f 35//10 31//10 34//10 36//10
f 21//11 25//11 34//11 31//11
f 21//2 31//2 35//2
f 19//12 24//12 32//12 30//12
f 36//1 34//1 25//1
f 20//4 37//4 38//4 27//4
f 37//13 29//13 33//13 38//13
f 38//1 33//1 26//1
f 23//6 17//6 39//6 40//6
f 19//2 30//2 39//2
f 32//14 40//14 39//14 30//14
f 40//1 32//1 24//1
f 44//5 43//5 51//5 49//5
f 58//6 44//6 49//6 64//6
f 45//3 46//3 52//3 50//3
f 45//2 2//2 41//2 46//2
f 42//4 41//4 48//4 47//4
f 60//4 55//4 45//4 50//4
f 52//1 63//1 74//1 62//1 64//1 49//1 47//1 48//1
f 35//2 5//2 2//2 45//2 55//2 75//2 53//2 57//2 71//2 19//2 39//2 17//2 21//2
f 41//7 2//7 12//7 48//7
f 12//1 50//1 52//1 48//1
f 42//2 44//2 58//2 54//2 73//2 56//2 46//2 41//2
f 65//2 73//2 54//2
f 76//4 75//4 55//4 60//4
f 57//4 53//4 59//4 61//4
f 71//4 57//4 61//4 72//4
f 46//6 56//6 63//6 52//6
f 73//6 54//6 62//6 74//6
f 54//6 58//6 64//6 62//6
f 14//15 51//15 43//15 7//15
f 69//16 65//16 54//16 62//16
f 71//17 67//17 70//17 72//17
f 57//18 61//18 70//18 67//18
f 57//2 67//2 71//2
f 55//19 60//19 68//19 66//19
f 72//1 70//1 61//1
f 56//6 73//6 74//6 63//6
f 73//20 65//20 69//20 74//20
f 74//1 69//1 62//1
f 59//4 53//4 75//4 76//4
f 55//2 66//2 75//2
f 68//21 76//21 75//21 66//21
f 76//1 68//1 60//1
f 1//2 43//2 44//2 42//2
f 51//1 11//1 47//1 49//1
f 1//8 42//8 47//8 11//8
f 7//2 43//2 1//2
f 11//1 51//1 14//1
f 40//1 24//1 72//1 61//1 59//1 76//1 60//1 50//1 12//1 15//1 36//1 25//1 23//1
f 19//22 71//22 72//22 24//22
